<?xml version="1.0" encoding="UTF-8"?>
<svg width="369px" height="102px" viewBox="0 0 369 102" version="1.1" xmlns="http://www.w3.org/2000/svg" xmlns:xlink="http://www.w3.org/1999/xlink">
    <!-- Generator: Sketch 39.1 (31720) - http://www.bohemiancoding.com/sketch -->
    <title>Group 10</title>
    <desc>Created with Sketch.</desc>
    <defs>
        <text id="text-1" font-family="MatrixIIOT-Bold, Matrix II OT" font-size="34" font-weight="bold" fill="#F0F0F0">
            <tspan x="105" y="41">Alpha Epsilon Pi</tspan>
            <tspan x="105" y="81">Alpha Kappa</tspan>
        </text>
        <filter x="-50%" y="-50%" width="200%" height="200%" filterUnits="objectBoundingBox" id="filter-2">
            <feOffset dx="0" dy="2" in="SourceAlpha" result="shadowOffsetOuter1"></feOffset>
            <feGaussianBlur stdDeviation="2" in="shadowOffsetOuter1" result="shadowBlurOuter1"></feGaussianBlur>
            <feColorMatrix values="0 0 0 0 0   0 0 0 0 0   0 0 0 0 0  0 0 0 0.5 0" type="matrix" in="shadowBlurOuter1"></feColorMatrix>
        </filter>
        <filter x="-50%" y="-50%" width="200%" height="200%" filterUnits="objectBoundingBox" id="filter-3">
            <feOffset dx="0" dy="1" in="SourceAlpha" result="shadowOffsetOuter1"></feOffset>
            <feGaussianBlur stdDeviation="1.5" in="shadowOffsetOuter1" result="shadowBlurOuter1"></feGaussianBlur>
            <feColorMatrix values="0 0 0 0 0   0 0 0 0 0   0 0 0 0 0  0 0 0 0.5 0" type="matrix" in="shadowBlurOuter1" result="shadowMatrixOuter1"></feColorMatrix>
            <feMerge>
                <feMergeNode in="shadowMatrixOuter1"></feMergeNode>
                <feMergeNode in="SourceGraphic"></feMergeNode>
            </feMerge>
        </filter>
        <path d="M37.5269014,95.9795344 C37.5447459,95.9811447 37.5538028,95.9818372 37.5538028,95.9818372 C38.6259601,95.8739802 55.4897144,93.9293832 67.2224473,72.6547372 C78.0776789,52.9712407 74.3980166,9.40239796 74.3980166,9.40239796 C74.3980166,9.40239796 63.6306109,9.85099593 55.0999986,7.15940714 C46.9517688,4.58846812 38.3119832,0.396968673 37.5538028,0.0263686212 L37.5538028,0 C37.5538028,0 37.5447344,0.00446733318 37.5269014,0.0132045776 C37.5090684,0.00446733318 37.5,0 37.5,0 L37.5,0.0263686212 C36.7418196,0.396968673 28.102034,4.58846812 19.9538042,7.15940714 C11.423192,9.85099593 0.655786203,9.40239796 0.655786203,9.40239796 C0.655786203,9.40239796 -3.02387602,52.9712407 7.83135549,72.6547372 C19.5640884,93.9293832 36.4278428,95.8739802 37.5,95.9770236 C37.5,95.9818372 37.5090569,95.9811447 37.5269014,95.9795344 Z" id="path-4"></path>
        <mask id="mask-5" maskContentUnits="userSpaceOnUse" maskUnits="objectBoundingBox" x="0" y="0" width="74.9436001" height="95.9818372" fill="white">
            <use xlink:href="#path-4"></use>
        </mask>
    </defs>
    <g id="aepi.rocks" stroke="none" stroke-width="1" fill="none" fill-rule="evenodd">
        <g id="Desktop-Copy-33" transform="translate(-27.000000, -28.000000)">
            <g id="Group-10" transform="translate(30.000000, 30.000000)">
                <g id="Alpha-Epsilon-Pi-Alp" fill-opacity="1" fill="#F0F0F0">
                    <use filter="url(#filter-2)" xlink:href="#text-1"></use>
                    <use xlink:href="#text-1"></use>
                </g>
                <g id="Group-2" filter="url(#filter-3)">
                    <g id="Group">
                        <use id="Combined-Shape" stroke="#FEDC37" mask="url(#mask-5)" stroke-width="7" fill="#3369C0" xlink:href="#path-4"></use>
                        <g id="Group-Copy-2" transform="translate(10.561224, 19.738318)" fill="#FFDC37">
                            <polygon id="Shape" points="14.9023013 16.098748 14.9023013 16.970478 21.6553785 19.5864434 22.9524798 18.9318704 21.4931447 16.098748"></polygon>
                            <polygon id="Shape-Copy" transform="translate(33.829692, 17.842596) scale(-1, 1) translate(-33.829692, -17.842596) " points="29.8046027 16.098748 29.8046027 16.970478 36.5576798 19.5864434 37.8547811 18.9318704 36.395446 16.098748"></polygon>
                            <path d="M53.877551,20.5891734 L43.5510204,7.7447794e-08 L11.6734694,7.7447794e-08 L0,20.5891734 L14.8163265,49.7943926 L26.9387755,55.6261683 L40.8571429,49.7943926 L53.877551,20.5891734 Z M39.2639293,39.1504066 L28.0636476,39.1504066 L27.9759953,30.8157127 L33.1313388,26.4896365 L32.2755748,25.4651211 L26.9387755,28.5704652 L21.6019762,25.4643456 L20.7469811,26.4888609 L25.9015558,30.8149372 L25.8154412,39.149631 L14.6136217,39.149631 L6.13210129,19.9159861 L14.0577211,6.31343123 L26.9387748,10.317757 L39.8198299,6.31343123 L47.7462186,19.9159861 L39.2639293,39.1504066 Z" id="Shape"></path>
                        </g>
                    </g>
                </g>
            </g>
        </g>
    </g>
</svg>