<?xml version="1.0" encoding="UTF-8"?>
<svg width="405px" height="509px" viewBox="0 0 405 509" version="1.1" xmlns="http://www.w3.org/2000/svg" xmlns:xlink="http://www.w3.org/1999/xlink">
    <!-- Generator: Sketch 39.1 (31720) - http://www.bohemiancoding.com/sketch -->
    <title>Group 2</title>
    <desc>Created with Sketch.</desc>
    <defs>
        <filter x="-50%" y="-50%" width="200%" height="200%" filterUnits="objectBoundingBox" id="filter-1">
            <feOffset dx="0" dy="5" in="SourceAlpha" result="shadowOffsetOuter1"></feOffset>
            <feGaussianBlur stdDeviation="7.5" in="shadowOffsetOuter1" result="shadowBlurOuter1"></feGaussianBlur>
            <feColorMatrix values="0 0 0 0 0   0 0 0 0 0   0 0 0 0 0  0 0 0 0.5 0" type="matrix" in="shadowBlurOuter1" result="shadowMatrixOuter1"></feColorMatrix>
            <feMerge>
                <feMergeNode in="shadowMatrixOuter1"></feMergeNode>
                <feMergeNode in="SourceGraphic"></feMergeNode>
            </feMerge>
        </filter>
        <path d="M187.634507,479.897672 C187.723729,479.905723 187.769014,479.909186 187.769014,479.909186 L187.769014,479.885118 C193.1298,479.369901 277.448572,469.646916 336.112237,363.273686 C390.388394,264.856204 371.990083,47.0119898 371.990083,47.0119898 C371.990083,47.0119898 318.153054,49.2549796 275.499993,35.7970357 C234.758844,22.9423406 191.559916,1.98484336 187.769014,0.131843106 L187.769014,0 C187.769014,0 187.723672,0.0223366659 187.634507,0.0660228878 C187.545342,0.0223366658 187.5,0 187.5,0 L187.5,0.131843106 C183.709098,1.98484336 140.51017,22.9423406 99.769021,35.7970357 C57.1159598,49.2549796 3.27893102,47.0119898 3.27893102,47.0119898 C3.27893102,47.0119898 -15.1193801,264.856204 39.1567775,363.273686 C97.820442,469.646916 182.139214,479.369901 187.5,479.885118 L187.5,479.909186 C187.5,479.909186 187.545285,479.905723 187.634507,479.897672 Z" id="path-2"></path>
        <mask id="mask-3" maskContentUnits="userSpaceOnUse" maskUnits="objectBoundingBox" x="0" y="0" width="374.718001" height="479.909186" fill="white">
            <use xlink:href="#path-2"></use>
        </mask>
    </defs>
    <g id="aepi.rocks" stroke="none" stroke-width="1" fill="none" fill-rule="evenodd">
        <g id="Desktop-Copy-33" transform="translate(-122.000000, -53.000000)">
            <g id="Group-2" filter="url(#filter-1)" transform="translate(137.000000, 62.000000)">
                <g id="Group">
                    <use id="Combined-Shape" stroke="#FEDC37" mask="url(#mask-3)" stroke-width="35" fill="#3369C0" xlink:href="#path-2"></use>
                    <g id="Group-Copy-2" transform="translate(52.806122, 98.691589)" fill="#FFDC37">
                        <polygon id="Shape" points="74.5115067 80.4937401 74.5115067 84.8523899 108.276892 97.9322169 114.762399 94.6593518 107.465723 80.4937401"></polygon>
                        <polygon id="Shape-Copy" transform="translate(169.148460, 89.212979) scale(-1, 1) translate(-169.148460, -89.212979) " points="149.023013 80.4937401 149.023013 84.8523899 182.788399 97.9322169 189.273906 94.6593518 181.97723 80.4937401"></polygon>
                        <path d="M269.387755,102.945867 L217.755102,3.8723897e-07 L58.3673469,3.8723897e-07 L0,102.945867 L74.0816327,248.971963 L134.693878,278.130842 L204.285714,248.971963 L269.387755,102.945867 Z M196.319647,195.752033 L140.318238,195.752033 L139.879976,154.078564 L165.656694,132.448183 L161.377874,127.325606 L134.693878,142.852326 L108.009881,127.321728 L103.734906,132.444305 L129.507779,154.074686 L129.077206,195.748155 L73.0681084,195.748155 L30.6605064,99.5799304 L70.2886055,31.5671562 L134.693874,51.5887851 L199.09915,31.5671562 L238.731093,99.5799304 L196.319647,195.752033 Z" id="Shape"></path>
                    </g>
                </g>
            </g>
        </g>
    </g>
</svg>